<svg id="03db07b1-ed82-4d5c-b269-32972ed376b0" data-name="Calque 1" xmlns="http://www.w3.org/2000/svg" viewBox="0 0 177 130"><defs><style>.f8ae908c-3c85-4365-a91f-eb860fb7d63c{fill:#e74e0f;}</style></defs><title>logo</title><path class="f8ae908c-3c85-4365-a91f-eb860fb7d63c" d="M30.27,38.09a5.82,5.82,0,0,0,2.94-.64,2.85,2.85,0,0,0,1-2.49,3,3,0,0,0-.95-2.53,5.24,5.24,0,0,0-3-1.05C30,31.37,29.66,31,29.33,31H28v7h1.33C29.66,38,30,38.11,30.27,38.09Z"/><path class="f8ae908c-3c85-4365-a91f-eb860fb7d63c" d="M94.55,38a4.74,4.74,0,0,0,3.08-.89,3.29,3.29,0,0,0,.82-2.54A3.38,3.38,0,0,0,97.57,32a5.39,5.39,0,0,0-3.18-1H91v7h3.55Z"/><path class="f8ae908c-3c85-4365-a91f-eb860fb7d63c" d="M167.71,0H9.15A8.82,8.82,0,0,0,0,8.72V121.5c0,5,4.05,8.5,9.15,8.5H167.71c5.1,0,9.29-3.53,9.29-8.5V8.72C177,3.75,172.81,0,167.71,0ZM149.18,43.78l-1.57-.52q-2.94-1-4.63-1.76A10,10,0,0,1,140.52,40a8.68,8.68,0,0,1-2.28-3,9.69,9.69,0,0,1-.74-3.87,9.2,9.2,0,0,1,3.19-7.47q3.19-2.65,9-2.65a15.19,15.19,0,0,1,8.38,2.11q3.25,2.1,3.26,5.23a3.91,3.91,0,0,1-1,2.84,3.64,3.64,0,0,1-2.75,1,5.46,5.46,0,0,1-3.66-1.88c-0.34-.33-0.6-0.58-0.79-0.74a6.3,6.3,0,0,0-1.74-1.1,4.9,4.9,0,0,0-1.83-.37,3.7,3.7,0,0,0-2.2.56,1.88,1.88,0,0,0-.78,1.62c0,1.1,1.33,2.08,4,3a0.24,0.24,0,0,1,.1,0l0.94,0.3q5.64,1.85,7.22,3.15a9,9,0,0,1,2.51,3.11,9.24,9.24,0,0,1,.78,3.95q0,5.26-3.32,8t-9.65,2.76a15,15,0,0,1-8.56-2.16,6.61,6.61,0,0,1-3.2-5.71,4.69,4.69,0,0,1,1.09-3.2,3.56,3.56,0,0,1,2.81-1.24c1.15,0,2.37.72,3.66,2.16l0.55,0.63a6.82,6.82,0,0,0,2,1.57,5.27,5.27,0,0,0,2.17.41,4.38,4.38,0,0,0,2.5-.63,2,2,0,0,0,.9-1.76C153.08,45.56,151.79,44.6,149.18,43.78ZM120,28.32c0-1.52-.06-2.7.75-3.55a4.72,4.72,0,0,1,6.34-.07c0.79,0.79.91,1.94,0.91,3.45V51.31a4.88,4.88,0,0,1-1.06,3.55,4.3,4.3,0,0,1-3.33,1.26,3.5,3.5,0,0,1-2.94-1.18C119.89,54.16,120,53,120,51.48V28.32ZM81,29.84c0-2.2.51-3.71,1.33-4.57S84.69,24,86.77,24H95c4.32,0,7.41.68,9.27,2.1s2.8,3.71,2.8,6.92a9.16,9.16,0,0,1-1.22,5,7.8,7.8,0,0,1-3.8,3,6.89,6.89,0,0,1,3.1,1.36A5.34,5.34,0,0,1,106.68,45a13,13,0,0,1,.24,1.86c0.06,0.75.12,1.35,0.15,1.79l0.18,1.38a16.88,16.88,0,0,1,.24,2.24,3.51,3.51,0,0,1-1.19,2.83,5,5,0,0,1-3.35,1,5.33,5.33,0,0,1-1.75-.27,4.14,4.14,0,0,1-1.42-.83q-1.16-1.06-1.49-5-0.06-.77-0.1-1.21a5.73,5.73,0,0,0-1.05-3.26,3.84,3.84,0,0,0-2.73-1.2L94.28,44H91v7.57A4.88,4.88,0,0,1,89.46,55a5,5,0,0,1-3.56,1.22A4.79,4.79,0,0,1,82.37,55,5.06,5.06,0,0,1,81,51.39V29.84ZM48,50.76a3.63,3.63,0,0,1,.17-0.82l7-21.75a7.72,7.72,0,0,1,1.89-3.42A3.75,3.75,0,0,1,59.9,24h2.68a3.8,3.8,0,0,1,2.76.69,8.55,8.55,0,0,1,1.91,3.63L74.35,50a3.85,3.85,0,0,1,.21.85,6.75,6.75,0,0,1,.08,1.09,4.31,4.31,0,0,1-1.14,3.14,4.47,4.47,0,0,1-5.5.44,5,5,0,0,1-1.47-2.41L65.89,51H56.65L56,53.12a4.65,4.65,0,0,1-1.47,2.27A4.31,4.31,0,0,1,49.07,55a4.4,4.4,0,0,1-1.13-3.17A8.86,8.86,0,0,1,48,50.76ZM17,29.84c0-2.2.46-3.71,1.28-4.57S20.59,24,22.67,24H29c0.45,0,.89,0,1.31,0a26.92,26.92,0,0,1,4.95.48A10,10,0,0,1,39,26.09a9.32,9.32,0,0,1,3,3.69A12.88,12.88,0,0,1,43,35q0,5.5-2.92,8.25T31.33,46H28v5.56c0,1.53-1.22,2.69-2,3.48a5.73,5.73,0,0,1-3.84,1.18,5.16,5.16,0,0,1-3.68-1.27A5,5,0,0,1,17,51.39V29.84ZM173,119.9a7.18,7.18,0,0,1-7.09,7.1H10.57C6.72,127,3,123.76,3,119.9V66.45l170-.24V119.9Z"/><polygon class="f8ae908c-3c85-4365-a91f-eb860fb7d63c" points="64.2 44 61.31 33.42 61.29 33.31 58.38 44 61.29 44 64.2 44"/><path class="f8ae908c-3c85-4365-a91f-eb860fb7d63c" d="M32.43,107h0q6.87,0,10.85-4.2t4-11.45c0-4.85-1.32-8.51-4-11.31S37,76,32.46,76h0c-4.58,0-8.2,1.25-10.85,4s-4,6.55-4,11.39,1.33,8.6,4,11.4S27.85,107,32.43,107ZM28.2,85.05A4.83,4.83,0,0,1,32.43,83h0a4.79,4.79,0,0,1,4.21,2.06C37.57,86.38,38,88.47,38,91.3s-0.44,5.15-1.34,6.48A4.92,4.92,0,0,1,32.46,100h0a5,5,0,0,1-4.22-2.21c-0.91-1.32-1.36-3.52-1.36-6.34S27.3,86.37,28.2,85.05Z"/><path class="f8ae908c-3c85-4365-a91f-eb860fb7d63c" d="M54.65,104c2.3,2,5.62,3,9.78,3s7.61-1,9.9-3A10.83,10.83,0,0,0,78,95.54v-15a4.54,4.54,0,0,0-1.4-3.31,4.79,4.79,0,0,0-3.44-1.19A4.2,4.2,0,0,0,70,77.18a4.13,4.13,0,0,0-1,3.22V94.79a5.36,5.36,0,0,1-1.2,3.54,4,4,0,0,1-3.12,1.08,3.51,3.51,0,0,1-2.88-1.06C61.17,97.65,61,96.46,61,94.79V80.4a4.33,4.33,0,0,0-1.39-3.22,5,5,0,0,0-3.51-1.12,5.3,5.3,0,0,0-3.63,1.19A4.59,4.59,0,0,0,51,80.56v15A10.77,10.77,0,0,0,54.65,104Z"/><path class="f8ae908c-3c85-4365-a91f-eb860fb7d63c" d="M88.51,107h14a4.35,4.35,0,0,0,2.9-1.3,3.79,3.79,0,0,0,1-2.82,2.69,2.69,0,0,0-1-2.35c-0.69-.63-1.68-0.53-3-0.53H92V94h8.16a3.59,3.59,0,0,0,2.63-.69,3.24,3.24,0,0,0,.9-2.5,3.88,3.88,0,0,0-.88-2.77A4.17,4.17,0,0,0,100,87H92V83h9.94c1.27,0,2.24,0,2.9-.59a2.94,2.94,0,0,0,1-2.43,3.87,3.87,0,0,0-1-2.87,4.34,4.34,0,0,0-3-1.1H88.51a6,6,0,0,0-4.29,1.45C83.4,78.25,83,79.92,83,82v18.73c0,2,.4,3.87,1.21,4.68A6,6,0,0,0,88.51,107Z"/><path class="f8ae908c-3c85-4365-a91f-eb860fb7d63c" d="M123.66,99.37a4.54,4.54,0,0,1-2.48.59,5.48,5.48,0,0,1-2.16-.39,6.76,6.76,0,0,1-2-1.47l-0.54-.58a5.31,5.31,0,0,0-3.63-2,3.65,3.65,0,0,0-2.79,1.16,4.24,4.24,0,0,0-1.08,3,6.12,6.12,0,0,0,3.17,5.34,15.61,15.61,0,0,0,8.48,2q6.27,0,9.57-2.59a9,9,0,0,0,3.29-7.5,8.28,8.28,0,0,0-.77-3.69,8.58,8.58,0,0,0-2.49-2.91q-1.56-1.21-7.15-2.95l-0.93-.28-0.09,0c-2.65-.82-4-1.75-4-2.77a1.74,1.74,0,0,1,.77-1.52,3.83,3.83,0,0,1,2.18-.52,5,5,0,0,1,1.81.34,6.42,6.42,0,0,1,1.73,1l0.77,0.69A5.52,5.52,0,0,0,129,86.08a3.74,3.74,0,0,0,2.73-1,3.56,3.56,0,0,0,1-2.66c0-1.95-1.08-3.58-3.24-4.89a15.7,15.7,0,0,0-8.3-2q-5.74,0-8.9,2.48a8.4,8.4,0,0,0-3.15,7,8.61,8.61,0,0,0,.73,3.62,8.08,8.08,0,0,0,2.26,2.84,10,10,0,0,0,2.44,1.36q1.68,0.72,4.58,1.64L120.7,95c2.58,0.77,3.86,1.67,3.86,2.7A1.87,1.87,0,0,1,123.66,99.37Z"/><path class="f8ae908c-3c85-4365-a91f-eb860fb7d63c" d="M138.61,84H143v18.06a4.65,4.65,0,0,0,1.56,3.32,6.12,6.12,0,0,0,7.12.07,4.32,4.32,0,0,0,1.32-3.23V84h5a4.2,4.2,0,0,0,3-.84,3.56,3.56,0,0,0,1-2.74,4.53,4.53,0,0,0-1-3.18,4.15,4.15,0,0,0-3-1.24H138.68a4.28,4.28,0,0,0-3,1.23,4.1,4.1,0,0,0-1,3,3.69,3.69,0,0,0,1,2.83A4.12,4.12,0,0,0,138.61,84Z"/></svg>